# xmcd
#
# Track frame offsets: 
#        150
#        19605
#        43612
#        82147
#        105342
#        125562
#        148087
#        170700
#        192630
#        205490
#        251222
#        266305
#        281600
#        302110
#
# Disc length: 4339 seconds
#
# Revision: 2
# Processed by: cddbd v1.4PL0 Copyright (c) Steve Scherf et al.
# Submitted via: ExactAudioCopy v0.95a4
#
DISCID=d410f10e
DTITLE=BB King - Lucille and Friends
DYEAR=1995
DGENRE=Blues
TTITLE0=When Love Comes To Town
TTITLE1=Playin' With My Friends
TTITLE2=To Know You Is To Love You
TTITLE3=Caught A Touch Of Your Love
TTITLE4=All You Ever Give Me Is The Blues
TTITLE5=You Shook Me
TTITLE6=Spirit In The Dark
TTITLE7=Can't Get Enough
TTITLE8=Since I Met You Baby
TTITLE9=BB's Blues
TTITLE10=Better Not Look Down
TTITLE11=Frosty
TTITLE12=Hummingbird
TTITLE13=Ghetto Woman
EXTD=
EXTT0=with U2
EXTT1=with Robert Cray
EXTT2=with Stevie Wonder
EXTT3=with Grover Washington Jr.
EXTT4=with Vernon Read
EXTT5=with John Lee Hooker
EXTT6=with Dianne Schuur
EXTT7=with Mick Fleetwood And Stevie Nicks
EXTT8=with Gary Moore
EXTT9=with Branford Marsalis
EXTT10=with The Crusaders
EXTT11=with Albert Collins
EXTT12=with Leon Russell and Joe Walsh
EXTT13=with Gary Wright, Mac Rebennack  and \nRingo Star\n
PLAYORDER=
